<svg width="1280" height="720" xmlns="http://www.w3.org/2000/svg" xmlns:xlink="http://www.w3.org/1999/xlink" overflow="hidden"><g><rect x="0" y="0" width="1280" height="720" fill="#FFFFFF"/><text font-family="Calibri Light,Calibri Light_MSFontService,sans-serif" font-weight="300" font-size="80" transform="translate(264.57 159)">Silicon Perception Inc</text><text font-family="Calibri,Calibri_MSFontService,sans-serif" font-weight="400" font-size="32" transform="translate(380.504 448)">Building Real Time Image Encoders</text><rect x="464.5" y="276.5" width="10" height="119" stroke="#000000" stroke-width="1.33333" stroke-miterlimit="8" fill="none"/><rect x="480.5" y="276.5" width="10" height="119" stroke="#000000" stroke-width="1.33333" stroke-miterlimit="8" fill="none"/><rect x="496.5" y="276.5" width="10" height="119" stroke="#000000" stroke-width="1.33333" stroke-miterlimit="8" fill="none"/><rect x="512.5" y="292.5" width="10" height="87" stroke="#000000" stroke-width="1.33333" stroke-miterlimit="8" fill="none"/><rect x="528.5" y="292.5" width="10" height="87" stroke="#000000" stroke-width="1.33333" stroke-miterlimit="8" fill="none"/><rect x="546.5" y="292.5" width="11" height="87" stroke="#000000" stroke-width="1.33333" stroke-miterlimit="8" fill="none"/><rect x="562.5" y="301.5" width="11" height="69" stroke="#000000" stroke-width="1.33333" stroke-miterlimit="8" fill="none"/><rect x="578.5" y="301.5" width="11" height="69" stroke="#000000" stroke-width="1.33333" stroke-miterlimit="8" fill="none"/><rect x="594.5" y="301.5" width="11" height="69" stroke="#000000" stroke-width="1.33333" stroke-miterlimit="8" fill="none"/><rect x="707.5" y="324.5" width="11" height="23" stroke="#000000" stroke-width="1.33333" stroke-miterlimit="8" fill="none"/><rect x="723.5" y="324.5" width="11" height="23" stroke="#000000" stroke-width="1.33333" stroke-miterlimit="8" fill="none"/><rect x="739.5" y="324.5" width="11" height="23" stroke="#000000" stroke-width="1.33333" stroke-miterlimit="8" fill="none"/><rect x="610.5" y="309.5" width="11" height="54" stroke="#000000" stroke-width="1.33333" stroke-miterlimit="8" fill="none"/><rect x="628.5" y="309.5" width="11" height="54" stroke="#000000" stroke-width="1.33333" stroke-miterlimit="8" fill="none"/><rect x="644.5" y="309.5" width="11" height="54" stroke="#000000" stroke-width="1.33333" stroke-miterlimit="8" fill="none"/><rect x="660.5" y="315.5" width="11" height="41" stroke="#000000" stroke-width="1.33333" stroke-miterlimit="8" fill="none"/><rect x="676.5" y="315.5" width="11" height="41" stroke="#000000" stroke-width="1.33333" stroke-miterlimit="8" fill="none"/><rect x="692.5" y="315.5" width="11" height="41" stroke="#000000" stroke-width="1.33333" stroke-miterlimit="8" fill="none"/><path d="M5.53863e-07-0.166667 56.518-0.166479 56.518 0.166854-5.53863e-07 0.166667ZM55.1847-3.99982 63.1847 0.000209974 55.1847 4.00018Z" transform="matrix(1 0 0 -1 750.5 336.5)"/><path d="M399.5 336.333 457.272 336.333 457.272 336.667 399.5 336.667ZM455.938 332.5 463.938 336.5 455.938 340.5Z"/></g></svg>